<?xml version="1.0" encoding="utf-8"?>
<!-- Generator: Adobe Illustrator 25.4.1, SVG Export Plug-In . SVG Version: 6.00 Build 0)  -->
<svg version="1.1" id="레이어_1" xmlns="http://www.w3.org/2000/svg" xmlns:xlink="http://www.w3.org/1999/xlink" x="0px"
	 y="0px" viewBox="0 0 512 512" style="enable-background:new 0 0 512 512;" xml:space="preserve">
<style type="text/css">
	.st0{fill:#315E8B;}
</style>
<g transform="translate(0.000000,512.000000) scale(0.100000,-0.100000)">
	<g id="XMLID_00000138543491566971021770000016880348871780942978_">
		<g>
			<path class="st0" d="M4889,2413c8-21,11-330,9-1196l-3-1169l-28-24l-28-24H3735H2632l-30,25c-61,52-103,52-164,0l-30-25H1305H202
				l-31,26l-31,26v1180v1180l29,29c26,26,36,29,90,29h61V1400c0-877,2-1077,14-1103c17-43,76-93,123-106c53-15,4073-15,4125-1
				c45,13,93,51,116,94c16,29,17,113,20,1109l2,1077h51C4832,2470,4873,2450,4889,2413z"/>
			<path class="st0" d="M4670,4440c0-18-91-193-131-251c-75-111-163-162-284-163c-140-2-199,106-129,235c53,97,122,140,275,174
				C4477,4451,4670,4455,4670,4440z"/>
			<path class="st0" d="M4525,3619l45-87l-65-7c-113-12-298,11-365,45c-47,24-114,93-135,140c-16,35-21,38-68,44c-91,11-262,6-348-9
				c-167-29-356-109-470-199c-50-39-56-49-68-102c-7-33-22-81-34-109c-33-82-142-238-230-331l-82-87l74,37c99,50,285,111,401,132
				c205,36,454,15,673-57c186-62,448-207,620-343l57-46V1505V371l-95,65c-515,348-1091,383-1655,98c-58-29-141-75-184-102l-79-49
				l-96,60c-398,251-831,337-1242,247c-209-45-460-160-625-286c-24-19-46-34-49-34s-5,510-5,1134v1134l77,59
				c236,182,501,314,748,371c299,70,615,35,900-99c39-18,75-35,80-38c6-2-27,35-72,82c-138,147-228,297-254,430c-11,54-16,61-70,103
				c-124,95-297,168-473,199c-91,15-303,21-321,7c-6-4-23-28-37-53c-29-49-90-109-135-132c-51-26-146-40-280-41c-72-1-134,2-138,6
				c-11,11,73,159,135,240l56,73l70-3c98-5,159,11,197,52c27,28,42,34,92,41c96,12,303,7,394-10c47-8,86-13,87-12c2,2-5,51-16,109
				c-31,175-53,388-42,413c7,14.6,8.1,19.1-9,19.1l23,18.9l37,14c43,17,82,6,105-29c9-14,23-91,35-189c17-136,66-418,74-425
				c1-1,31-16,67-34c84-42,179-105,255-170c64-54,243-148,334-174c30-9,75-16,100-16c97,0,326,104,433,196c70,60,167,124,249,164
				l66,33l16,76c26,121,45,246,62,391c13,108,20,139,36,157c29,29,63,36,103,19l34-14l11.5-18.6c-4.6-2-2.8-6.7,1.5-15.4
				c12-21-9-227-41-412c-11-61-18-111-17-113c2-1,41,4,88,12c87,16,324,22,394,10c22-4,78-25,124-48c82-41,86-42,189-42h106l53-70
				C4456,3736,4500,3666,4525,3619z M3004,924c42,18,56,42,56,98c0,154-104,339-298,532l-90,88l67,58c127,111,200,200,257,312
				c97,192,83,376-42,571c-44,69-227,262-270,285c-18,9-28,5-74-33c-80-66-110-66-191,0c-29,25-57,45-60,45c-4,0-51-42-104-92
				c-201-191-285-345-285-528c0-193,102-371,321-560l67-57l-95-94c-118-116-182-201-233-304c-66-136-81-255-35-300
				c36-37,86-37,124,0c18,17,26,41,33,87c9,71,48,158,102,233c39,54,195,215,238,247l28,19l96-93c159-153,233-264,255-383
				c18-94,29-116,66-131C2965,912,2975,912,3004,924z M2814,3337c4,8-12,4-41-8c-76-33-191-59-258-59c-34,0-95,9-136,19
				c-41,11-96,29-122,40c-29,12-45,16-41,8c59-99,269-337,299-337S2755,3238,2814,3337z"/>
			<path class="st0" d="M4045,440c185-75,222-70-525-70l-665,1l65,33c140,72,323,123,495,136C3624,557,3847,521,4045,440z"/>
			<path class="st0" d="M3884,5020c12,0-2-220-19-302c-19-90-43-134-102-189c-61-58-126-83-192-77c-24.4,2.6-36.7,3.6-41.5,1.4
				L3518,4472l10,41c25,101,24,163-3,269c-6,23,0,31,52,73C3627,4895,3861,5020,3884,5020z"/>
			<path class="st0" d="M3171,4954c136-104,189-193,189-317c0-182-139-240-275-115c-71,64-103,131-111,230c-6,67,10,290,23,310
				C3002,5071,3090,5016,3171,4954z"/>
			<path class="st0" d="M2880,2259c0-54-34-151-77-218c-42-66-155-184-230-243c-51-39-55-40-80-27c-14,8-69,54-121,104
				c-286,270-293,482-25,747c43,43,96,91,118,107c22,17,44,31,49,31c31,1,212-171,277-264C2843,2422,2880,2324,2880,2259z
				 M2689,2413c13,38,7,62-22,95c-19,21-28,22-153,22h-132l-26-31c-29-35-32-58-12-98c22-41,55-51,172-51
				C2639,2350,2673,2362,2689,2413z M2663,2010c49,39,42,116-14,145c-36,19-233,20-269,2c-53-27-64-89-24-136l26-31h128
				C2622,1990,2640,1992,2663,2010z"/>
			<path class="st0" d="M2185,371h-670l-670,1l80,38c146,71,317,117,480,130c88,7,118,7,262-5c138-12,340-71,471-140L2185,371z"/>
			<path class="st0" d="M2050,4919c9-94,9-143,1-198c-14-86-28-118-84-178c-102-110-225-116-278-12c-26,53-26,160,1,233
				c25,66,122,163,250,248c59,40,87,53,92,44C2036,5050,2044,4988,2050,4919z"/>
			<path class="st0" d="M1501,4510l11-37l-23-18.9c-7.5,0-18.5-0.9-34-2.1c-94-8-206,61-255,158c-31,61-49,154-57,288
				c-3,67-3,122,1,122c18,0,206-95,266-135c97-65,100-70,82-152C1478,4662,1481,4578,1501,4510z"/>
			<path class="st0" d="M924,4317c104-127,84-256-44-287c-84-20-205,16-269,81c-56,57-138,191-185,303l-16,39l132-6
				C758,4436,853,4404,924,4317z"/>
		</g>
		<g>
		</g>
	</g>
</g>
</svg>
